<svg width="200" height="200" viewBox="0 0 200 200" xmlns="http://www.w3.org/2000/svg">
  <!-- Background circle -->
  <circle cx="100" cy="100" r="95" fill="#F4F6F8" stroke="#B11226" stroke-width="2"/>
  
  <!-- PDF document shape -->
  <path d="M 65 50 L 65 150 Q 65 160 75 160 L 135 160 Q 145 160 145 150 L 145 70 L 120 50 Z" fill="#B11226" stroke="#B11226" stroke-width="1"/>
  
  <!-- White background for document -->
  <path d="M 70 55 L 70 155 Q 70 158 73 158 L 135 158 Q 142 158 142 155 L 142 70 L 120 55 Z" fill="white" stroke="none"/>
  
  <!-- Fold corner -->
  <path d="M 120 55 L 135 70 L 120 70 Z" fill="#B11226"/>
  
  <!-- Document text lines -->
  <line x1="80" y1="75" x2="125" y2="75" stroke="#1F2937" stroke-width="2" stroke-linecap="round"/>
  <line x1="80" y1="85" x2="125" y2="85" stroke="#1F2937" stroke-width="1.5" stroke-linecap="round"/>
  <line x1="80" y1="93" x2="125" y2="93" stroke="#1F2937" stroke-width="1.5" stroke-linecap="round"/>
  
  <!-- Arrow for transformation (PDF to Image) -->
  <g transform="translate(100, 130)">
    <circle cx="0" cy="0" r="8" fill="#B11226" opacity="0.8"/>
    <path d="M -2 -4 L 2 0 L -2 4" fill="none" stroke="white" stroke-width="2" stroke-linecap="round" stroke-linejoin="round"/>
  </g>
  
  <!-- Small image icon representation -->
  <g transform="translate(140, 125)">
    <circle cx="0" cy="0" r="7" fill="#B11226" opacity="0.9"/>
    <circle cx="-2" cy="-2" r="1.5" fill="white"/>
    <path d="M -3 2 Q -1 0 1 2 L 2 2 L 2 3 L -2 3 Z" fill="white"/>
  </g>
  
  <!-- Text label at bottom -->
  <text x="100" y="180" font-family="Arial, sans-serif" font-size="14" font-weight="bold" text-anchor="middle" fill="#B11226">MyToolKitPro</text>
</svg>